<?xml version="1.0" encoding="UTF-8"?>
<svg version="1.1" xmlns="http://www.w3.org/2000/svg" width="72" height="72">
<path d="M0 0 C1.546875 0.8353125 1.546875 0.8353125 3.125 1.6875 C10.71537404 7.79280086 17.09288332 14.94933946 18.21875 24.94140625 C18.88209053 33.94625391 18.51105404 41.9681233 14 50 C13.443125 51.03125 12.88625 52.0625 12.3125 53.125 C6.20719914 60.71537404 -0.94933946 67.09288332 -10.94140625 68.21875 C-19.94625391 68.88209053 -27.9681233 68.51105404 -36 64 C-37.03125 63.443125 -38.0625 62.88625 -39.125 62.3125 C-46.71537404 56.20719914 -53.09288332 49.05066054 -54.21875 39.05859375 C-54.88209053 30.05374609 -54.51105404 22.0318767 -50 14 C-49.443125 12.96875 -48.88625 11.9375 -48.3125 10.875 C-36.36883269 -3.97388368 -17.30119401 -9.71710897 0 0 Z " fill="#B0D8FB" transform="translate(54,4)"/>
<path d="M0 0 C0 3.3 0 6.6 0 10 C3.63 10 7.26 10 11 10 C11 11.65 11 13.3 11 15 C7.37 15 3.74 15 0 15 C0.1134549 18.95897882 0.2402125 22.91674032 0.375 26.875 C0.4059375 28.00292969 0.436875 29.13085938 0.46875 30.29296875 C0.50742187 31.36933594 0.54609375 32.44570313 0.5859375 33.5546875 C0.63306885 35.04718018 0.63306885 35.04718018 0.68115234 36.56982422 C0.77247083 39.17854517 0.77247083 39.17854517 3 41 C5.65537372 41.56520003 8.29144713 41.73788198 11 42 C10.67 43.65 10.34 45.3 10 47 C1.86503067 47.3190184 1.86503067 47.3190184 -2 45 C-7.1819999 40.11228651 -11.0008221 34.18991431 -14.8671875 28.25390625 C-18.46843201 22.75969989 -22.24860294 17.39263328 -26 12 C-26.33 21.9 -26.66 31.8 -27 42 C-28.32 42 -29.64 42 -31 42 C-31 29.13 -31 16.26 -31 3 C-26 3 -26 3 -24.11328125 4.87890625 C-23.51902344 5.76449219 -22.92476562 6.65007813 -22.3125 7.5625 C-21.63703125 8.55121094 -20.9615625 9.53992188 -20.265625 10.55859375 C-19.5095772 11.70517607 -18.75442885 12.85235179 -18 14 C-17.09996773 15.34572772 -16.19888488 16.69075327 -15.296875 18.03515625 C-13.52144709 20.68554225 -11.75875255 23.3437662 -10.00390625 26.0078125 C-8.29325172 28.77143185 -8.29325172 28.77143185 -7 30 C-6.67 25.05 -6.34 20.1 -6 15 C-8.31 15 -10.62 15 -13 15 C-13 13.35 -13 11.7 -13 10 C-10.69 10 -8.38 10 -6 10 C-6 7.36 -6 4.72 -6 2 C-2.25 0 -2.25 0 0 0 Z " fill="#1C2F93" transform="translate(47,14)"/>
</svg>
